<svg class="visual" xmlns="http://www.w3.org/2000/svg" viewBox="0 0 1120 245" role="img"><style>text{font-family:Arial,Helvetica,sans-serif}</style><defs><marker id="arrow-14" viewBox="0 0 10 10" refX="9" refY="5" markerWidth="7" markerHeight="7" orient="auto-start-reverse"><path d="M0 0L10 5L0 10Z" fill="#1d7d76"/></marker></defs><text x="28" y="22" fill="#6c7474" font-size="15" text-anchor="start">THE SAME RECURRENT NETWORK AT EVERY CONTROL STEP</text><text x="190" y="59" fill="#1d7d76" font-size="21" text-anchor="middle">Observation xₜ₋₁</text><path d="M190,72 L190,92" fill="none" stroke="#1d7d76" stroke-width="2.4" marker-end="url(#arrow-14)"/><rect x="85" y="103" width="210" height="70" rx="3" fill="#e8f5f3" stroke="none"/><text x="190" y="133" fill="#1d7d76" font-size="23" text-anchor="middle">LSTM [1024]</text><text x="190" y="159" fill="#6c7474" font-size="16" text-anchor="middle">time t − 1</text><path d="M190,180 L190,199" fill="none" stroke="#1d7d76" stroke-width="2.4" marker-end="url(#arrow-14)"/><text x="213" y="194" fill="#6c7474" font-size="15" text-anchor="start">MLP</text><text x="190" y="229" fill="#1d7d76" font-size="21" text-anchor="middle">Action aₜ₋₁</text><g class="fragment" data-step="1"><text x="550" y="59" fill="#1d7d76" font-size="21" text-anchor="middle">Observation xₜ</text><path d="M550,72 L550,92" fill="none" stroke="#1d7d76" stroke-width="2.4" marker-end="url(#arrow-14)"/><rect x="445" y="103" width="210" height="70" rx="3" fill="#e8f5f3" stroke="none"/><text x="550" y="133" fill="#1d7d76" font-size="23" text-anchor="middle">LSTM [1024]</text><text x="550" y="159" fill="#6c7474" font-size="16" text-anchor="middle">time t</text><path d="M550,180 L550,199" fill="none" stroke="#1d7d76" stroke-width="2.4" marker-end="url(#arrow-14)"/><text x="573" y="194" fill="#6c7474" font-size="15" text-anchor="start">MLP</text><text x="550" y="229" fill="#1d7d76" font-size="21" text-anchor="middle">Action aₜ</text><path d="M310,138 L429,138" fill="none" stroke="#1d7d76" stroke-width="2.4" marker-end="url(#arrow-14)"/><text x="369" y="116" fill="#6c7474" font-size="17" text-anchor="middle">hₜ₋₁, cₜ₋₁</text></g><g class="fragment" data-step="2"><text x="910" y="59" fill="#1d7d76" font-size="21" text-anchor="middle">Observation xₜ₊₁</text><path d="M910,72 L910,92" fill="none" stroke="#1d7d76" stroke-width="2.4" marker-end="url(#arrow-14)"/><rect x="805" y="103" width="210" height="70" rx="3" fill="#e8f5f3" stroke="none"/><text x="910" y="133" fill="#1d7d76" font-size="23" text-anchor="middle">LSTM [1024]</text><text x="910" y="159" fill="#6c7474" font-size="16" text-anchor="middle">time t + 1</text><path d="M910,180 L910,199" fill="none" stroke="#1d7d76" stroke-width="2.4" marker-end="url(#arrow-14)"/><text x="933" y="194" fill="#6c7474" font-size="15" text-anchor="start">MLP</text><text x="910" y="229" fill="#1d7d76" font-size="21" text-anchor="middle">Action aₜ₊₁</text><path d="M670,138 L789,138" fill="none" stroke="#1d7d76" stroke-width="2.4" marker-end="url(#arrow-14)"/><text x="729" y="116" fill="#6c7474" font-size="17" text-anchor="middle">hₜ, cₜ</text></g></svg>